<?xml version="1.0" encoding="UTF-8"?>
<svg width="36px" height="34px" viewBox="0 0 36 34" version="1.1" xmlns="http://www.w3.org/2000/svg" xmlns:xlink="http://www.w3.org/1999/xlink">
    <!-- Generator: Sketch 47.1 (45422) - http://www.bohemiancoding.com/sketch -->
    <title>Fill 117</title>
    <desc>Created with Sketch.</desc>
    <defs></defs>
    <g id="Page-1" stroke="none" stroke-width="1" fill="none" fill-rule="evenodd">
        <g id="MATERIAL_Prueba_UX_Frontend" transform="translate(-305.000000, -104.000000)" fill="#D6D6D6">
            <path d="M323.3428,104.2142 L317.9338,115.1722 L305.8428,116.9292 L314.5928,125.4602 L312.5258,137.5022 L323.3428,131.8162 L334.1578,137.5022 L332.0928,125.4602 L340.8428,116.9292 L328.7498,115.1722 L323.3428,104.2142 Z M323.3428,109.8842 L326.4998,116.2812 L327.0838,117.4652 L328.3878,117.6552 L335.4508,118.6822 L330.3408,123.6622 L329.3968,124.5832 L329.6188,125.8832 L330.8248,132.9152 L324.5108,129.5942 L323.3428,128.9812 L322.1748,129.5942 L315.8588,132.9152 L317.0668,125.8842 L317.2898,124.5832 L316.3448,123.6622 L311.2348,118.6822 L318.2958,117.6552 L319.6008,117.4652 L320.1848,116.2832 L323.3428,109.8842 Z" id="Fill-117"></path>
        </g>
    </g>
</svg>