<?xml version="1.0" encoding="UTF-8"?>
<svg width="104px" height="23px" viewBox="0 0 104 23" version="1.1" xmlns="http://www.w3.org/2000/svg" xmlns:xlink="http://www.w3.org/1999/xlink">
    <!-- Generator: Sketch 47.1 (45422) - http://www.bohemiancoding.com/sketch -->
    <title>Group 2</title>
    <desc>Created with Sketch.</desc>
    <defs></defs>
    <g id="Page-1" stroke="none" stroke-width="1" fill="none" fill-rule="evenodd">
        <g id="MATERIAL_Prueba_UX_Frontend" transform="translate(-1420.000000, -448.000000)" fill="#989898">
            <g id="Group-113" transform="translate(1420.000000, 448.000000)">
                <g id="Group-2">
                    <g id="Group" transform="translate(39.000000, 0.000000)">
                        <path d="M19.7863723,15.1862344 C19.3101152,16.2938091 18.6726444,17.247554 17.8727293,18.0468537 C17.0721989,18.8467688 16.1203,19.4836243 15.01211,19.9598814 C13.9051506,20.4379845 12.7440431,20.6754977 11.5294028,20.6754977 C10.3141472,20.6754977 9.15303974,20.4361385 8.04361907,19.9598814 C6.93665967,19.4836243 5.9835301,18.8467688 5.18423035,18.0468537 C4.38431527,17.247554 3.74745981,16.2938091 3.26935673,15.1862344 C2.79248428,14.079275 2.55497104,12.9169368 2.55497104,11.7022966 C2.55497104,10.4864257 2.79248428,9.32531817 3.26935673,8.21774345 C3.74561386,7.11016874 4.38431527,6.15703917 5.18423035,5.35773941 C5.9835301,4.55905498 6.93665967,3.92035356 8.04361907,3.44409644 C9.15303974,2.96783931 10.3141472,2.72848011 11.5294028,2.72848011 C12.7440431,2.72848011 13.9051506,2.96599335 15.01211,3.44409644 C16.1203,3.92035356 17.0721989,4.55905498 17.8727293,5.35773941 C18.6726444,6.15703917 19.3101152,7.11016874 19.7863723,8.21774345 C20.2626294,9.32531817 20.502604,10.4864257 20.502604,11.7022966 C20.502604,12.9175522 20.2626294,14.079275 19.7863723,15.1862344 M20.85149,6.29733196 C19.889746,4.64766096 18.5840384,3.34133812 16.9337521,2.37897875 C15.2828505,1.41600407 13.4830416,0.93359375 11.5294028,0.93359375 C9.57514877,0.93359375 7.7734939,1.41600407 6.12320757,2.37897875 C4.47415189,3.3407228 3.16721373,4.64766096 2.20485436,6.29733196 C1.242495,7.94700297 0.7607,9.74927316 0.7607,11.7022966 C0.7607,13.6559353 1.242495,15.4569749 2.20485436,17.1072612 C3.16721373,18.7569322 4.47415189,20.063255 6.12320757,21.0256144 C7.7734939,21.9892044 9.57514877,22.4697687 11.5294028,22.4697687 C13.4830416,22.4697687 15.2840811,21.9892044 16.9337521,21.0256144 C18.5815772,20.063255 19.889746,18.7569322 20.85149,17.1072612 C21.8144647,15.4569749 22.296875,13.6559353 22.296875,11.7022966 C22.296875,9.74927316 21.8144647,7.94638765 20.85149,6.29733196" id="Fill-105"></path>
                        <path d="M16.0860267,13.0905799 C15.8522054,13.0148957 15.6233066,13.0345859 15.3987151,13.146574 C15.1728929,13.2579468 15.0258316,13.4363894 14.9501473,13.6788252 C14.7175566,14.4270534 14.2831412,15.0325276 13.652439,15.4952477 C13.022352,15.9579678 12.3128889,16.1893279 11.5289721,16.1893279 C10.7432094,16.1893279 10.0362075,15.9579678 9.40365928,15.4952477 C8.77418765,15.0325276 8.34100288,14.4270534 8.10841219,13.6788252 C8.03395855,13.4363894 7.88628192,13.2579468 7.6653823,13.146574 C7.44632864,13.0345859 7.21927582,13.0148957 6.98606981,13.0905799 C6.74240337,13.1656489 6.56519142,13.3120949 6.45320331,13.5317639 C6.33936924,13.7508175 6.32152498,13.9778704 6.39659393,14.2116917 C6.74240337,15.3432638 7.3878733,16.2545517 8.33054245,16.9455553 C9.27628819,17.6377895 10.3407906,17.9835989 11.5289721,17.9835989 C12.715923,17.9835989 13.7810407,17.6377895 14.7261711,16.9455553 C15.6694556,16.2533211 16.3149255,15.3432638 16.6613503,14.2116917 C16.7358039,13.9778704 16.716729,13.7508175 16.6047409,13.5317639 C16.4915221,13.3120949 16.3186174,13.1656489 16.0860267,13.0905799" id="Fill-107"></path>
                        <path d="M7.93963011,9.90827166 C8.43496213,9.90827166 8.85584052,9.73167502 9.20718783,9.38217367 C9.55853515,9.03144168 9.73451646,8.60810201 9.73451646,8.1133853 C9.73451646,7.61682264 9.55853515,7.19409829 9.20718783,6.84398162 C8.85584052,6.49386494 8.43496213,6.31849895 7.93963011,6.31849895 C7.44306744,6.31849895 7.02095841,6.49386494 6.67022642,6.84398162 C6.31949443,7.19409829 6.14412843,7.61682264 6.14412843,8.1133853 C6.14412843,8.60810201 6.31949443,9.03144168 6.67022642,9.38217367 C7.02095841,9.73167502 7.44306744,9.90827166 7.93963011,9.90827166" id="Fill-109"></path>
                        <path d="M15.1164681,6.31819129 C14.6235974,6.31819129 14.1990271,6.4941726 13.8495257,6.84367396 C13.4975631,7.19440595 13.3221971,7.6171303 13.3221971,8.11307764 C13.3221971,8.60840967 13.4975631,9.03174934 13.8495257,9.38186601 C14.1990271,9.73198268 14.6235974,9.907964 15.1164681,9.907964 C15.6130308,9.907964 16.0363705,9.73198268 16.3864871,9.38186601 C16.7366038,9.03174934 16.9119698,8.60840967 16.9119698,8.11307764 C16.9119698,7.6171303 16.7366038,7.19440595 16.3864871,6.84367396 C16.0363705,6.4941726 15.6130308,6.31819129 15.1164681,6.31819129" id="Fill-111"></path>
                    </g>
                    <g id="Group">
                        <path d="M19.7863723,15.1862344 C19.3101152,16.2938091 18.6726444,17.247554 17.8727293,18.0468537 C17.0721989,18.8467688 16.1203,19.4836243 15.01211,19.9598814 C13.9051506,20.4379845 12.7440431,20.6754977 11.5294028,20.6754977 C10.3141472,20.6754977 9.15303974,20.4361385 8.04361907,19.9598814 C6.93665967,19.4836243 5.9835301,18.8467688 5.18423035,18.0468537 C4.38431527,17.247554 3.74745981,16.2938091 3.26935673,15.1862344 C2.79248428,14.079275 2.55497104,12.9169368 2.55497104,11.7022966 C2.55497104,10.4864257 2.79248428,9.32531817 3.26935673,8.21774345 C3.74561386,7.11016874 4.38431527,6.15703917 5.18423035,5.35773941 C5.9835301,4.55905498 6.93665967,3.92035356 8.04361907,3.44409644 C9.15303974,2.96783931 10.3141472,2.72848011 11.5294028,2.72848011 C12.7440431,2.72848011 13.9051506,2.96599335 15.01211,3.44409644 C16.1203,3.92035356 17.0721989,4.55905498 17.8727293,5.35773941 C18.6726444,6.15703917 19.3101152,7.11016874 19.7863723,8.21774345 C20.2626294,9.32531817 20.502604,10.4864257 20.502604,11.7022966 C20.502604,12.9175522 20.2626294,14.079275 19.7863723,15.1862344 M20.85149,6.29733196 C19.889746,4.64766096 18.5840384,3.34133812 16.9337521,2.37897875 C15.2828505,1.41600407 13.4830416,0.93359375 11.5294028,0.93359375 C9.57514877,0.93359375 7.7734939,1.41600407 6.12320757,2.37897875 C4.47415189,3.3407228 3.16721373,4.64766096 2.20485436,6.29733196 C1.242495,7.94700297 0.7607,9.74927316 0.7607,11.7022966 C0.7607,13.6559353 1.242495,15.4569749 2.20485436,17.1072612 C3.16721373,18.7569322 4.47415189,20.063255 6.12320757,21.0256144 C7.7734939,21.9892044 9.57514877,22.4697687 11.5294028,22.4697687 C13.4830416,22.4697687 15.2840811,21.9892044 16.9337521,21.0256144 C18.5815772,20.063255 19.889746,18.7569322 20.85149,17.1072612 C21.8144647,15.4569749 22.296875,13.6559353 22.296875,11.7022966 C22.296875,9.74927316 21.8144647,7.94638765 20.85149,6.29733196" id="Fill-105"></path>
                        <path d="M16.0860267,13.0905799 C15.8522054,13.0148957 15.6233066,13.0345859 15.3987151,13.146574 C15.1728929,13.2579468 15.0258316,13.4363894 14.9501473,13.6788252 C14.7175566,14.4270534 14.2831412,15.0325276 13.652439,15.4952477 C13.022352,15.9579678 12.3128889,16.1893279 11.5289721,16.1893279 C10.7432094,16.1893279 10.0362075,15.9579678 9.40365928,15.4952477 C8.77418765,15.0325276 8.34100288,14.4270534 8.10841219,13.6788252 C8.03395855,13.4363894 7.88628192,13.2579468 7.6653823,13.146574 C7.44632864,13.0345859 7.21927582,13.0148957 6.98606981,13.0905799 C6.74240337,13.1656489 6.56519142,13.3120949 6.45320331,13.5317639 C6.33936924,13.7508175 6.32152498,13.9778704 6.39659393,14.2116917 C6.74240337,15.3432638 7.3878733,16.2545517 8.33054245,16.9455553 C9.27628819,17.6377895 10.3407906,17.9835989 11.5289721,17.9835989 C12.715923,17.9835989 13.7810407,17.6377895 14.7261711,16.9455553 C15.6694556,16.2533211 16.3149255,15.3432638 16.6613503,14.2116917 C16.7358039,13.9778704 16.716729,13.7508175 16.6047409,13.5317639 C16.4915221,13.3120949 16.3186174,13.1656489 16.0860267,13.0905799" id="Fill-107"></path>
                        <path d="M7.93963011,9.90827166 C8.43496213,9.90827166 8.85584052,9.73167502 9.20718783,9.38217367 C9.55853515,9.03144168 9.73451646,8.60810201 9.73451646,8.1133853 C9.73451646,7.61682264 9.55853515,7.19409829 9.20718783,6.84398162 C8.85584052,6.49386494 8.43496213,6.31849895 7.93963011,6.31849895 C7.44306744,6.31849895 7.02095841,6.49386494 6.67022642,6.84398162 C6.31949443,7.19409829 6.14412843,7.61682264 6.14412843,8.1133853 C6.14412843,8.60810201 6.31949443,9.03144168 6.67022642,9.38217367 C7.02095841,9.73167502 7.44306744,9.90827166 7.93963011,9.90827166" id="Fill-109"></path>
                        <path d="M15.1164681,6.31819129 C14.6235974,6.31819129 14.1990271,6.4941726 13.8495257,6.84367396 C13.4975631,7.19440595 13.3221971,7.6171303 13.3221971,8.11307764 C13.3221971,8.60840967 13.4975631,9.03174934 13.8495257,9.38186601 C14.1990271,9.73198268 14.6235974,9.907964 15.1164681,9.907964 C15.6130308,9.907964 16.0363705,9.73198268 16.3864871,9.38186601 C16.7366038,9.03174934 16.9119698,8.60840967 16.9119698,8.11307764 C16.9119698,7.6171303 16.7366038,7.19440595 16.3864871,6.84367396 C16.0363705,6.4941726 15.6130308,6.31819129 15.1164681,6.31819129" id="Fill-111"></path>
                    </g>
                    <g id="Group" transform="translate(81.000000, 0.000000)">
                        <path d="M19.7863723,15.1862344 C19.3101152,16.2938091 18.6726444,17.247554 17.8727293,18.0468537 C17.0721989,18.8467688 16.1203,19.4836243 15.01211,19.9598814 C13.9051506,20.4379845 12.7440431,20.6754977 11.5294028,20.6754977 C10.3141472,20.6754977 9.15303974,20.4361385 8.04361907,19.9598814 C6.93665967,19.4836243 5.9835301,18.8467688 5.18423035,18.0468537 C4.38431527,17.247554 3.74745981,16.2938091 3.26935673,15.1862344 C2.79248428,14.079275 2.55497104,12.9169368 2.55497104,11.7022966 C2.55497104,10.4864257 2.79248428,9.32531817 3.26935673,8.21774345 C3.74561386,7.11016874 4.38431527,6.15703917 5.18423035,5.35773941 C5.9835301,4.55905498 6.93665967,3.92035356 8.04361907,3.44409644 C9.15303974,2.96783931 10.3141472,2.72848011 11.5294028,2.72848011 C12.7440431,2.72848011 13.9051506,2.96599335 15.01211,3.44409644 C16.1203,3.92035356 17.0721989,4.55905498 17.8727293,5.35773941 C18.6726444,6.15703917 19.3101152,7.11016874 19.7863723,8.21774345 C20.2626294,9.32531817 20.502604,10.4864257 20.502604,11.7022966 C20.502604,12.9175522 20.2626294,14.079275 19.7863723,15.1862344 M20.85149,6.29733196 C19.889746,4.64766096 18.5840384,3.34133812 16.9337521,2.37897875 C15.2828505,1.41600407 13.4830416,0.93359375 11.5294028,0.93359375 C9.57514877,0.93359375 7.7734939,1.41600407 6.12320757,2.37897875 C4.47415189,3.3407228 3.16721373,4.64766096 2.20485436,6.29733196 C1.242495,7.94700297 0.7607,9.74927316 0.7607,11.7022966 C0.7607,13.6559353 1.242495,15.4569749 2.20485436,17.1072612 C3.16721373,18.7569322 4.47415189,20.063255 6.12320757,21.0256144 C7.7734939,21.9892044 9.57514877,22.4697687 11.5294028,22.4697687 C13.4830416,22.4697687 15.2840811,21.9892044 16.9337521,21.0256144 C18.5815772,20.063255 19.889746,18.7569322 20.85149,17.1072612 C21.8144647,15.4569749 22.296875,13.6559353 22.296875,11.7022966 C22.296875,9.74927316 21.8144647,7.94638765 20.85149,6.29733196" id="Fill-105"></path>
                        <path d="M16.0860267,13.0905799 C15.8522054,13.0148957 15.6233066,13.0345859 15.3987151,13.146574 C15.1728929,13.2579468 15.0258316,13.4363894 14.9501473,13.6788252 C14.7175566,14.4270534 14.2831412,15.0325276 13.652439,15.4952477 C13.022352,15.9579678 12.3128889,16.1893279 11.5289721,16.1893279 C10.7432094,16.1893279 10.0362075,15.9579678 9.40365928,15.4952477 C8.77418765,15.0325276 8.34100288,14.4270534 8.10841219,13.6788252 C8.03395855,13.4363894 7.88628192,13.2579468 7.6653823,13.146574 C7.44632864,13.0345859 7.21927582,13.0148957 6.98606981,13.0905799 C6.74240337,13.1656489 6.56519142,13.3120949 6.45320331,13.5317639 C6.33936924,13.7508175 6.32152498,13.9778704 6.39659393,14.2116917 C6.74240337,15.3432638 7.3878733,16.2545517 8.33054245,16.9455553 C9.27628819,17.6377895 10.3407906,17.9835989 11.5289721,17.9835989 C12.715923,17.9835989 13.7810407,17.6377895 14.7261711,16.9455553 C15.6694556,16.2533211 16.3149255,15.3432638 16.6613503,14.2116917 C16.7358039,13.9778704 16.716729,13.7508175 16.6047409,13.5317639 C16.4915221,13.3120949 16.3186174,13.1656489 16.0860267,13.0905799" id="Fill-107"></path>
                        <path d="M7.93963011,9.90827166 C8.43496213,9.90827166 8.85584052,9.73167502 9.20718783,9.38217367 C9.55853515,9.03144168 9.73451646,8.60810201 9.73451646,8.1133853 C9.73451646,7.61682264 9.55853515,7.19409829 9.20718783,6.84398162 C8.85584052,6.49386494 8.43496213,6.31849895 7.93963011,6.31849895 C7.44306744,6.31849895 7.02095841,6.49386494 6.67022642,6.84398162 C6.31949443,7.19409829 6.14412843,7.61682264 6.14412843,8.1133853 C6.14412843,8.60810201 6.31949443,9.03144168 6.67022642,9.38217367 C7.02095841,9.73167502 7.44306744,9.90827166 7.93963011,9.90827166" id="Fill-109"></path>
                        <path d="M15.1164681,6.31819129 C14.6235974,6.31819129 14.1990271,6.4941726 13.8495257,6.84367396 C13.4975631,7.19440595 13.3221971,7.6171303 13.3221971,8.11307764 C13.3221971,8.60840967 13.4975631,9.03174934 13.8495257,9.38186601 C14.1990271,9.73198268 14.6235974,9.907964 15.1164681,9.907964 C15.6130308,9.907964 16.0363705,9.73198268 16.3864871,9.38186601 C16.7366038,9.03174934 16.9119698,8.60840967 16.9119698,8.11307764 C16.9119698,7.6171303 16.7366038,7.19440595 16.3864871,6.84367396 C16.0363705,6.4941726 15.6130308,6.31819129 15.1164681,6.31819129" id="Fill-111"></path>
                    </g>
                </g>
            </g>
        </g>
    </g>
</svg>