<?xml version="1.0" encoding="UTF-8"?>
<svg width="18px" height="18px" viewBox="0 0 18 18" version="1.1" xmlns="http://www.w3.org/2000/svg" xmlns:xlink="http://www.w3.org/1999/xlink">
    <!-- Generator: Sketch 47.1 (45422) - http://www.bohemiancoding.com/sketch -->
    <title>Group</title>
    <desc>Created with Sketch.</desc>
    <defs></defs>
    <g id="Page-1" stroke="none" stroke-width="1" fill="none" fill-rule="evenodd">
        <g id="MATERIAL_Prueba_UX_Frontend" transform="translate(-1165.000000, -462.000000)" fill="#00CF64">
            <g id="Group" transform="translate(1165.000000, 462.000000)">
                <path d="M14.677,0 L18.006,0 L14,4.659 L14,0.664 C14,0.265 14.346,0 14.677,0" id="Fill-82" transform="translate(16.003000, 2.329500) scale(1, -1) translate(-16.003000, -2.329500) "></path>
                <path d="M13.004,13.992 L13.004,18 L1.347,18 C0.612,18 0,17.389 0,16.654 L0,1.344 C0,0.612 0.612,0 1.347,0 L11.671,0 L15.664,0 L16.333,0 C17.064,0 17.676,0.612 17.676,1.344 L17.676,12.675 L14.333,12.675 C13.602,12.675 13.004,13.26 13.004,13.992" id="Fill-85" transform="translate(8.838000, 9.000000) scale(1, -1) translate(-8.838000, -9.000000) "></path>
            </g>
        </g>
    </g>
</svg>