<?xml version="1.0" encoding="UTF-8"?>
<svg width="36px" height="36px" viewBox="0 0 36 36" version="1.1" xmlns="http://www.w3.org/2000/svg" xmlns:xlink="http://www.w3.org/1999/xlink">
    <!-- Generator: Sketch 47.1 (45422) - http://www.bohemiancoding.com/sketch -->
    <title>Group</title>
    <desc>Created with Sketch.</desc>
    <defs></defs>
    <g id="Page-1" stroke="none" stroke-width="1" fill="none" fill-rule="evenodd">
        <g id="MATERIAL_Prueba_UX_Frontend" transform="translate(-125.000000, -103.000000)" fill="#FFFFFF">
            <g id="Group-128" transform="translate(13.000000, 0.450000)">
                <g id="Group" transform="translate(112.000000, 102.000000)">
                    <path d="M31.7632,24.0708 C32.5372,22.2718 32.9272,20.3838 32.9272,18.4088 C32.9272,16.4328 32.5372,14.5458 31.7632,12.7458 C30.9892,10.9458 29.9532,9.3968 28.6532,8.0978 C27.3522,6.7998 25.8052,5.7618 24.0042,4.9878 C22.2052,4.2108 20.3182,3.8248 18.3442,3.8248 C16.3692,3.8248 14.4822,4.2138 12.6792,4.9878 C10.8802,5.7618 9.3312,6.7998 8.0322,8.0978 C6.7322,9.3968 5.6942,10.9458 4.9202,12.7458 C4.1452,14.5458 3.7592,16.4328 3.7592,18.4088 C3.7592,20.3828 4.1452,22.2718 4.9202,24.0708 C5.6972,25.8708 6.7322,27.4208 8.0322,28.7198 C9.3312,30.0198 10.8802,31.0548 12.6792,31.8288 C14.4822,32.6028 16.3692,32.9918 18.3442,32.9918 C20.3182,32.9918 22.2052,32.6058 24.0042,31.8288 C25.8052,31.0548 27.3522,30.0198 28.6532,28.7198 C29.9532,27.4208 30.9892,25.8708 31.7632,24.0708 Z M33.4942,9.6248 C35.0592,12.3048 35.8432,15.2348 35.8432,18.4088 C35.8432,21.5838 35.0592,24.5108 33.4942,27.1928 C31.9312,29.8738 29.8052,31.9968 27.1272,33.5608 C24.4462,35.1268 21.5192,35.9078 18.3442,35.9078 C15.1682,35.9078 12.2402,35.1268 9.5582,33.5608 C6.8782,31.9968 4.7542,29.8738 3.1902,27.1928 C1.6262,24.5108 0.8432,21.5838 0.8432,18.4088 C0.8432,15.2348 1.6262,12.3058 3.1902,9.6248 C4.7542,6.9438 6.8782,4.8198 9.5582,3.2568 C12.2402,1.6918 15.1682,0.9078 18.3442,0.9078 C21.5192,0.9078 24.4442,1.6918 27.1272,3.2568 C29.8092,4.8208 31.9312,6.9438 33.4942,9.6248 Z" id="Fill-118"></path>
                    <path d="M25.7495,20.665 C25.3695,20.542 24.9975,20.574 24.6325,20.756 C24.2655,20.937 24.0265,21.227 23.9035,21.621 C23.5255,22.837 22.8195,23.821 21.7945,24.573 C20.7705,25.325 19.6175,25.701 18.3435,25.701 C17.0665,25.701 15.9175,25.325 14.8895,24.573 C13.8665,23.821 13.1625,22.837 12.7845,21.621 C12.6635,21.227 12.4235,20.937 12.0645,20.756 C11.7085,20.574 11.3395,20.542 10.9605,20.665 C10.5645,20.787 10.2765,21.025 10.0945,21.382 C9.9095,21.738 9.8805,22.107 10.0025,22.487 C10.5645,24.326 11.6135,25.807 13.1455,26.93 C14.6825,28.055 16.4125,28.617 18.3435,28.617 C20.2725,28.617 22.0035,28.055 23.5395,26.93 C25.0725,25.805 26.1215,24.326 26.6845,22.487 C26.8055,22.107 26.7745,21.738 26.5925,21.382 C26.4085,21.025 26.1275,20.787 25.7495,20.665" id="Fill-120"></path>
                    <path d="M12.5103,15.4932 C13.3153,15.4932 13.9993,15.2062 14.5703,14.6382 C15.1413,14.0682 15.4273,13.3802 15.4273,12.5762 C15.4273,11.7692 15.1413,11.0822 14.5703,10.5132 C13.9993,9.9442 13.3153,9.6592 12.5103,9.6592 C11.7033,9.6592 11.0173,9.9442 10.4473,10.5132 C9.8773,11.0822 9.5923,11.7692 9.5923,12.5762 C9.5923,13.3802 9.8773,14.0682 10.4473,14.6382 C11.0173,15.2062 11.7033,15.4932 12.5103,15.4932" id="Fill-122"></path>
                    <path d="M24.1738,9.6587 C23.3728,9.6587 22.6828,9.9447 22.1148,10.5127 C21.5428,11.0827 21.2578,11.7697 21.2578,12.5757 C21.2578,13.3807 21.5428,14.0687 22.1148,14.6377 C22.6828,15.2067 23.3728,15.4927 24.1738,15.4927 C24.9808,15.4927 25.6688,15.2067 26.2378,14.6377 C26.8068,14.0687 27.0918,13.3807 27.0918,12.5757 C27.0918,11.7697 26.8068,11.0827 26.2378,10.5127 C25.6688,9.9447 24.9808,9.6587 24.1738,9.6587" id="Fill-124"></path>
                </g>
            </g>
        </g>
    </g>
</svg>